<svg xmlns="http://www.w3.org/2000/svg" viewBox="0 0 519.06 159.94"><defs><style>.cls-1{fill:#ca9e67;}.cls-2{font-size:14.59px;fill:#1d1d1b;font-family:MalgunGothic-Semilight, MalgunGothic Semilight;font-weight:300;}</style></defs><title>blockchaintimes</title><g id="Layer_2" data-name="Layer 2"><g id="Layer_1-2" data-name="Layer 1"><path class="cls-1" d="M137.45,41.93a15.26,15.26,0,0,0,4.67-11.34c0-10.38-8.29-17.53-19.91-17.53H99.92V75.94h28c12.19,0,20.67-7.62,20.67-18.48,0-7.62-4.19-13.05-11.15-15.53M112.3,24.11h8.86c5.34,0,8.2,2.76,8.2,7.15s-2.86,7.24-8.2,7.24H112.3ZM127,64.89H112.3V49.07H127c5.62,0,9,3,9,7.91s-3.33,7.91-9,7.91"/><rect class="cls-1" x="151.02" y="4.49" width="12.87" height="71.45"/><path class="cls-1" d="M192.92,27.73c-14.1,0-25.25,10.67-25.25,24.59S178.82,77,192.83,77s25.43-10.67,25.43-24.67-11.43-24.59-25.34-24.59m0,37.44c-7.14,0-12.19-5.33-12.19-12.76s5.05-13,12.19-13c7,0,12.19,5.53,12.19,13s-5.23,12.76-12.19,12.76"/><path class="cls-1" d="M245.6,39.45c5.23,0,8.66,2.86,11.33,6.87l9-7C262,32.3,254.83,27.73,245.41,27.73c-14.1,0-25.25,10.67-25.25,24.59s11.15,24.76,25.25,24.76c9.33,0,16.57-4.67,20.48-11.72l-9-6.86c-2.76,3.91-6.19,6.77-11.33,6.77-7.34,0-12.39-5.53-12.39-12.95s5-12.87,12.39-12.87"/><polygon class="cls-1" points="315.58 75.94 296.44 49.65 314.16 28.78 298.91 28.78 281.96 48.98 281.96 4.49 269.1 4.49 269.1 75.94 281.96 75.94 281.96 49.93 300.92 75.94 315.58 75.94"/><path class="cls-1" d="M336.88,77.08c9.34,0,16.58-4.67,20.48-11.72l-9-6.86c-2.76,3.91-6.18,6.77-11.33,6.77-7.34,0-12.38-5.53-12.38-12.95s5-12.87,12.38-12.87c5.24,0,8.67,2.86,11.33,6.86l9-7c-3.9-7.06-11.05-11.63-20.48-11.63-14.1,0-25.24,10.67-25.24,24.59s11.14,24.76,25.24,24.76"/><path class="cls-1" d="M374.24,48.51c0-5.44,3.71-9.15,8.95-9.15S392,43,392,48.51V75.94h12.77V46.69c0-11.33-6.77-19-17.53-19a18,18,0,0,0-13,5.05V4.49H361.38V75.94h12.86Z"/><path class="cls-1" d="M450.33,75.94v-28c0-13.43-8.19-20.2-20.19-20.2-8.3,0-15.06,3.15-20.59,9.72l6.67,7.91c3.91-4.1,7.43-6.48,12.48-6.48,5.81,0,8.77,3.14,8.77,8.29v2.09H425.65c-10.86,0-17.81,5.15-17.81,13.72,0,8,6,14.1,16.29,14.1,6.1,0,11.05-2.19,14.39-5.71v4.57ZM437.47,58.32c0,5.53-4.48,9.33-9.91,9.33-4,0-6.77-1.91-6.77-5.14s2.39-4.76,6.57-4.76h10.11Z"/><rect class="cls-1" x="456.4" y="28.78" width="12.86" height="47.16"/><path class="cls-1" d="M462.88,19.54a8,8,0,0,0,8.19-7.9,8.24,8.24,0,0,0-16.48,0,8,8,0,0,0,8.29,7.9"/><path class="cls-1" d="M501.34,27.73a19.16,19.16,0,0,0-13.81,5.34V28.78H475.71V75.94h12.87V48.41c0-5.43,3.71-9.15,8.95-9.15s8.76,3.72,8.76,9.15V75.94h12.77V46.69c0-11.33-6.67-19-17.72-19"/><polygon class="cls-1" points="279.83 107.54 299.93 107.54 299.93 158.79 312.78 158.79 312.78 107.54 332.98 107.54 332.98 95.92 279.83 95.92 279.83 107.54"/><rect class="cls-1" x="337.81" y="111.64" width="12.86" height="47.16"/><path class="cls-1" d="M344.28,86.49a8,8,0,1,0,8.19,8,8,8,0,0,0-8.19-8"/><path class="cls-1" d="M412.87,110.59a20.53,20.53,0,0,0-15.71,6.76c-2.86-4.28-7.62-6.76-14-6.76a18.17,18.17,0,0,0-13.34,5.24v-4.2H358v47.16h12.86V131.36c0-5.62,3.53-9.15,8.67-9.15s8.39,3.53,8.39,9.15v27.43h12.86V131.07c0-5.24,3.52-8.86,8.67-8.86s8.38,3.53,8.38,9.15v27.43h12.86V129.55c0-11.34-6.57-19-17.82-19"/><path class="cls-1" d="M458.67,110.59A24.32,24.32,0,0,0,434,135.27c0,13.9,10.86,24.67,25.81,24.67a28.76,28.76,0,0,0,18.87-7.05l-5.34-8.77a20.71,20.71,0,0,1-13.14,4.77c-6.77,0-11.72-3.34-13.34-9.34H480a33.15,33.15,0,0,0,.85-7.05c0-12.19-9-21.91-22.19-21.91M446.85,130.5c1.53-5.91,5.91-9.53,11.34-9.53s10.1,3.53,10.2,9.53Z"/><path class="cls-1" d="M505.82,130.5l-4.58-1.9c-3.42-1.34-4.95-2.29-4.95-4.2,0-2.28,2-3.33,5-3.33a15.51,15.51,0,0,1,10.57,4.48l6.48-7.91c-4.28-4.77-10.1-7.14-16.95-7.14-10,0-17.35,5.14-17.35,14.19,0,7.43,4.87,11.15,12.87,14.38l5,2.1c2.86,1.24,4.86,2.09,4.86,4.29,0,2.67-2.76,3.91-6,3.91-5,0-9.43-2.48-13.24-6.39l-6.48,7.81c4.19,5.53,11.15,9.15,19.53,9.15,10.29,0,18.39-5.34,18.39-15.05,0-7.34-4.77-11-13.24-14.39"/><path class="cls-1" d="M78.8,44.42h0c-.07-.17-.17-.33-.25-.49l-.21-.42a12.62,12.62,0,0,0-.8-1.3l-.2-.28-9.71,9.72.08.18a6.44,6.44,0,0,1,.24.61l.12.45,0,.17c0,.2.08.4.11.6v0c0,.21,0,.43.07.65a12.78,12.78,0,0,1-4.06,9.36l-.6.61C59.27,68.69,53.14,69.71,50,66.56l-8.92-8.92a5.57,5.57,0,0,1-1-1.43c-1.31-3.43.05-8.22,3.67-11.85h0l.31-.31.3-.3c3.13-3.13,7.12-4.56,10.36-4.06l9.7-9.7-.51-.23.41-.42-.34-.18a17,17,0,0,0-9.32-1.71h-.16l-.78.1c-.25,0-.5.06-.75.1a17.48,17.48,0,0,0-1.2-10,13.46,13.46,0,0,0-3-4.52L39.83,4.18C32.8-2.85,19.21-.7,9.55,9l-.61.61C.07,18.45-2.6,30.76,2.74,38.2l.2.28.33-.33c.1.15.18.31.28.46l9.32-9.32c-1.61-3.45-.3-8.51,3.48-12.29l.61-.61c3.62-3.62,8.41-5,11.84-3.68a6,6,0,0,1,1.45,1l8.91,8.92A7.06,7.06,0,0,1,40.86,29a13.71,13.71,0,0,1-4,7.34h0l-.44.44-.18.18c-2.91,2.91-6.74,4.44-10,4l-.15,0L16.05,51l.35.18c.4.21.81.39,1.23.56a17.5,17.5,0,0,0,10,1.18s0,0,0,.07h0c-.09.55-.15,1.09-.19,1.62-.44,5.06,1,9.49,4.06,12.57l8.92,8.92A13.66,13.66,0,0,0,44.67,79c7.34,3.64,18.25.87,26.4-7.28l.61-.61c8-8,10.77-18.56,7.49-25.88-.11-.28-.24-.54-.37-.81"/><path class="cls-1" d="M38.41,77.4l-9.72-9.72-.18.08c-3.42,1.49-8.28.06-11.83-3.49l-.61-.61a15.05,15.05,0,0,1-2.88-4c-1.45-3.48-1.2-7.07,1-9.27l8.92-8.92c1.88-1.87,4.76-2.32,7.73-1.51l1.83-1.83,5.55-5.54L40,30.82a.88.88,0,0,1,0-.15,9.72,9.72,0,0,1-.28-3.79l-.31-.31a1.77,1.77,0,0,1,0-.23l0-.14L29.33,16.08l-.18.35a17.64,17.64,0,0,0-1.34,11.29C22,26.65,16.63,28,13.15,31.5L4.23,40.42C-2.79,47.44-.64,61,9,70.7l.61.61A32.41,32.41,0,0,0,19.22,78c7,3.34,14.29,3.47,19.32,0l-.37-.36Z"/><path class="cls-1" d="M66.61,30.25,57.7,39.16c-1.72,1.72-4.42,2.26-7.39,1.47l-.08,0-.29.09L40.65,50l.05.16a9.52,9.52,0,0,1,.26,4l0,.15L51,64.33l.14-.27.36.37a17.46,17.46,0,0,0,1.32-11.69c5.74,1.15,11.18,0,14.83-3.62l8.92-8.92c4.86-4.87,5.24-12.92,1.72-20.59A32.16,32.16,0,0,0,71.4,9.55l-.61-.61C61.9.05,49.59-2.6,42.15,2.76l-.28.2,9.7,9.7.19-.09.09,0,.36.36a9.32,9.32,0,0,1,7.53.22,15,15,0,0,1,4,2.87l.61.61c4.38,4.38,5.4,10.51,2.25,13.66"/><text class="cls-2" transform="translate(63.13 108.86) scale(0.93 1)">미래를 앞서가는 인사이트 매거진</text></g></g></svg>