<svg id="Layer_1" data-name="Layer 1" xmlns="http://www.w3.org/2000/svg" viewBox="0 0 141.73 40.6"><defs><style>.cls-1,.cls-2{fill:#bfbfc0;}.cls-2{stroke:#3e3a39;stroke-miterlimit:10;stroke-width:0.09px;}.cls-3{fill:#c0bfc0;}</style></defs><title>BNC</title><rect class="cls-1" x="13.52" y="16.84" width="13.52" height="7.25"/><rect class="cls-1" x="13.52" y="0.15" width="13.52" height="7.25"/><rect class="cls-2" y="8.5" width="6.76" height="7.25"/><rect class="cls-1" x="20.28" y="25.19" width="13.52" height="7.25"/><rect class="cls-2" y="25.11" width="6.76" height="7.25"/><rect class="cls-1" x="20.28" y="8.5" width="13.52" height="7.25"/><rect class="cls-1" x="13.52" y="33.53" width="13.52" height="6.94"/><path class="cls-3" d="M42.15,40.51V34.32h4.12a2.48,2.48,0,0,1,.75.1,1.77,1.77,0,0,1,.58.3,1.42,1.42,0,0,1,.37.5,1.75,1.75,0,0,1,.13.7,2,2,0,0,1-.06.52,1.33,1.33,0,0,1-.17.38,1.24,1.24,0,0,1-.25.26,1.1,1.1,0,0,1-.3.16,1.23,1.23,0,0,1,.63.5,1.48,1.48,0,0,1,.25.9,2.11,2.11,0,0,1-.13.77,1.54,1.54,0,0,1-.36.59,1.59,1.59,0,0,1-.57.38,2,2,0,0,1-.75.13Zm1.7-2.69v-.91h2.43a1,1,0,0,0,.62-.17.75.75,0,0,0,.2-.58.89.89,0,0,0-.08-.4.62.62,0,0,0-.25-.23,1,1,0,0,0-.38-.1,3.58,3.58,0,0,0-.49,0H43.14v4H46a2.45,2.45,0,0,0,.48,0,1.38,1.38,0,0,0,.39-.14.75.75,0,0,0,.25-.25.78.78,0,0,0,.09-.39A.8.8,0,0,0,47,38a.9.9,0,0,0-.64-.21Z"/><path class="cls-3" d="M49.94,40.51V34.32h1v5.11h3.79v1.08Z"/><path class="cls-3" d="M58.87,40.51a2.52,2.52,0,0,1-1.09-.24,2.64,2.64,0,0,1-.86-.66,3,3,0,0,1-.58-1,3.85,3.85,0,0,1-.2-1.25,3.75,3.75,0,0,1,.2-1.24,2.71,2.71,0,0,1,.58-1,2.53,2.53,0,0,1,.86-.62,2.82,2.82,0,0,1,1.09-.21h1.37a2.73,2.73,0,0,1,1.12.22,2.47,2.47,0,0,1,.87.62,2.72,2.72,0,0,1,.57,1,3.69,3.69,0,0,1,.2,1.23,3.85,3.85,0,0,1-.2,1.25,3,3,0,0,1-.58,1,2.58,2.58,0,0,1-.87.66,2.51,2.51,0,0,1-1.11.24Zm1.37-1.08a1.72,1.72,0,0,0,.72-.15,1.92,1.92,0,0,0,.56-.42,2,2,0,0,0,.37-.65A2.64,2.64,0,0,0,62,37.4a2.53,2.53,0,0,0-.13-.8,1.92,1.92,0,0,0-.37-.64,1.88,1.88,0,0,0-.56-.41,1.72,1.72,0,0,0-.72-.15H58.87a1.66,1.66,0,0,0-.7.15,1.72,1.72,0,0,0-.55.41,2,2,0,0,0-.37.63,2.59,2.59,0,0,0,0,1.62,2,2,0,0,0,.37.65,1.75,1.75,0,0,0,.55.42,1.66,1.66,0,0,0,.7.15Z"/><path class="cls-3" d="M67.25,40.51a2.52,2.52,0,0,1-1.09-.24,2.64,2.64,0,0,1-.86-.66,3,3,0,0,1-.58-1,3.85,3.85,0,0,1-.2-1.25,3.75,3.75,0,0,1,.2-1.24,2.71,2.71,0,0,1,.58-1,2.53,2.53,0,0,1,.86-.62,2.82,2.82,0,0,1,1.09-.21h3V35.4h-3a1.66,1.66,0,0,0-.7.15A1.72,1.72,0,0,0,66,36a2,2,0,0,0-.37.63,2.59,2.59,0,0,0,0,1.62,2,2,0,0,0,.37.65,1.75,1.75,0,0,0,.55.42,1.66,1.66,0,0,0,.7.15h3v1.08Z"/><path class="cls-3" d="M72,40.51V34.32h1v6.19Zm4.64,0-3.15-2.72a.49.49,0,0,1-.16-.22.61.61,0,0,1,0-.24.66.66,0,0,1,0-.25.59.59,0,0,1,.2-.24l3-2.52H78l-3.69,3,3.81,3.17Z"/><path class="cls-3" d="M80.56,36v4.53h-.94V34.89a.78.78,0,0,1,.14-.48.45.45,0,0,1,.36-.17.46.46,0,0,1,.21,0,.78.78,0,0,1,.21.17l4,4.34V34.27h.93v5.67a.74.74,0,0,1-.13.48.44.44,0,0,1-.35.17.62.62,0,0,1-.45-.23Z"/><path class="cls-3" d="M89.86,40.51a2.49,2.49,0,0,1-1.09-.24,2.79,2.79,0,0,1-.87-.66,3.2,3.2,0,0,1-.57-1,3.6,3.6,0,0,1-.2-1.25,3.51,3.51,0,0,1,.2-1.24,2.85,2.85,0,0,1,.57-1,2.67,2.67,0,0,1,.87-.62,2.79,2.79,0,0,1,1.09-.21h3V35.4h-3a1.63,1.63,0,0,0-.7.15,1.72,1.72,0,0,0-.55.41,2,2,0,0,0-.37.63,2.59,2.59,0,0,0,0,1.62,2,2,0,0,0,.37.65,1.75,1.75,0,0,0,.55.42,1.63,1.63,0,0,0,.7.15h3v1.08Z"/><path class="cls-3" d="M97.16,40.51a2.52,2.52,0,0,1-1.09-.24,2.64,2.64,0,0,1-.86-.66,3,3,0,0,1-.58-1,3.85,3.85,0,0,1-.2-1.25,3.75,3.75,0,0,1,.2-1.24,2.71,2.71,0,0,1,.58-1,2.53,2.53,0,0,1,.86-.62,2.82,2.82,0,0,1,1.09-.21h1.37a2.73,2.73,0,0,1,1.12.22,2.47,2.47,0,0,1,.87.62,2.72,2.72,0,0,1,.57,1,3.69,3.69,0,0,1,.2,1.23,3.6,3.6,0,0,1-.21,1.25,2.86,2.86,0,0,1-.57,1,2.58,2.58,0,0,1-.87.66,2.51,2.51,0,0,1-1.11.24Zm1.37-1.08a1.72,1.72,0,0,0,.72-.15,1.92,1.92,0,0,0,.56-.42,2.16,2.16,0,0,0,.37-.65,2.64,2.64,0,0,0,.13-.81,2.53,2.53,0,0,0-.13-.8,2.11,2.11,0,0,0-.37-.64,1.88,1.88,0,0,0-.56-.41,1.72,1.72,0,0,0-.72-.15H97.16a1.66,1.66,0,0,0-.7.15,1.72,1.72,0,0,0-.55.41,2,2,0,0,0-.37.63,2.59,2.59,0,0,0,0,1.62,2,2,0,0,0,.37.65,1.75,1.75,0,0,0,.55.42,1.66,1.66,0,0,0,.7.15Z"/><path class="cls-3" d="M109.67,40.51l-1.08-4.35-1.59,4a.88.88,0,0,1-.21.3.44.44,0,0,1-.29.11.54.54,0,0,1-.51-.41l-1.59-4-1.07,4.35h-1l1.45-5.83c.07-.29.23-.44.49-.44a.52.52,0,0,1,.29.09.58.58,0,0,1,.2.28L106.53,39l1.73-4.38a.48.48,0,0,1,.47-.37c.24,0,.4.15.48.44l1.44,5.83Z"/><path class="cls-3" d="M113.88,38.79v-1h2.26a1,1,0,0,0,.81-.32,1.41,1.41,0,0,0,0-1.71,1.06,1.06,0,0,0-.81-.31h-3v5.11h-1V34.32h4a2.41,2.41,0,0,1,.87.15,2,2,0,0,1,.65.45,2.12,2.12,0,0,1,.4.69,3.09,3.09,0,0,1,0,1.84,2.22,2.22,0,0,1-.4.71,1.9,1.9,0,0,1-.65.47,2.21,2.21,0,0,1-.87.16Z"/><path class="cls-3" d="M124.83,40.51,124,39h-2.67l.47-.87h1.73l-1.26-2.32-2.55,4.75h-1.13l3.24-5.93a.74.74,0,0,1,.2-.25.44.44,0,0,1,.56,0,.72.72,0,0,1,.19.25L126,40.51Z"/><path class="cls-3" d="M128.42,36v4.53h-.94V34.89a.78.78,0,0,1,.14-.48.45.45,0,0,1,.37-.17.54.54,0,0,1,.21,0,1,1,0,0,1,.2.17l4,4.34V34.27h.93v5.67a.74.74,0,0,1-.13.48.44.44,0,0,1-.35.17.62.62,0,0,1-.45-.23Z"/><path class="cls-3" d="M137.75,40.51V38.16l-3-3.84h1.33l2.19,2.85,2.2-2.85h1.25l-3,3.84v2.35Z"/><path class="cls-1" d="M71.54,15.78a5.27,5.27,0,0,0-2.84-2.23,4.67,4.67,0,0,0,2.42-2.16A7.82,7.82,0,0,0,72,7.61a8.6,8.6,0,0,0-.5-2.94,6,6,0,0,0-1.54-2.38A7.29,7.29,0,0,0,67.19.72a12.54,12.54,0,0,0-4-.57H42.11V28.52H63q4.71,0,7.2-2.25a7.8,7.8,0,0,0,2.49-6.09A7.75,7.75,0,0,0,71.54,15.78Zm-8,7.16H47.67V5.73H63.08a3,3,0,0,1,2,.61,2.28,2.28,0,0,1,.7,1.83,2.35,2.35,0,0,1-.7,1.85,2.94,2.94,0,0,1-2,.64H52.71v7.09H63.65a3,3,0,0,1,2.14.71,2.66,2.66,0,0,1,.74,2Q66.53,22.94,63.59,22.94Z"/><path class="cls-1" d="M104.78,28.62A4.07,4.07,0,0,1,102,27.44L82.62,9.68V28.29H76.36V3.43A3.45,3.45,0,0,1,77.23,1a3.2,3.2,0,0,1,2.44-1,3.44,3.44,0,0,1,1.38.28,4.75,4.75,0,0,1,1.29.86l19.4,17.6V.11H108V25.19a3.46,3.46,0,0,1-.88,2.48A3.14,3.14,0,0,1,104.78,28.62Z"/><path class="cls-1" d="M126.08,28.34A14,14,0,0,1,116,24.2a13.69,13.69,0,0,1-3-4.56A15.14,15.14,0,0,1,112,14a14.9,14.9,0,0,1,1-5.64,12.82,12.82,0,0,1,3-4.39,13.44,13.44,0,0,1,4.47-2.8,15.58,15.58,0,0,1,5.58-1h15.63v6H126.08a8.49,8.49,0,0,0-3.18.6,7.42,7.42,0,0,0-4.14,4.18,8.63,8.63,0,0,0-.6,3.28,8.82,8.82,0,0,0,.6,3.28,7.72,7.72,0,0,0,1.65,2.58,7.56,7.56,0,0,0,2.5,1.69,8.21,8.21,0,0,0,3.17.61h15.63v6Z"/></svg>