<svg id="Layer_1" data-name="Layer 1" xmlns="http://www.w3.org/2000/svg" xmlns:xlink="http://www.w3.org/1999/xlink" viewBox="0 0 1600 721.37"><defs><style>.cls-1{fill:none;}.cls-2{clip-path:url(#clip-path);}.cls-3{fill:url(#linear-gradient);}.cls-4{fill:url(#linear-gradient-2);}.cls-5{fill:url(#linear-gradient-3);}.cls-6{fill:url(#linear-gradient-4);}.cls-7{fill:url(#linear-gradient-5);}.cls-8{fill:url(#linear-gradient-6);}.cls-9{fill:url(#linear-gradient-7);}</style><clipPath id="clip-path"><path class="cls-1" d="M800,0a50.83,50.83,0,0,0-50.82,50.83v619.7a50.82,50.82,0,1,0,101.64,0V50.83A50.82,50.82,0,0,0,800,0ZM949.84,34.21A50.84,50.84,0,0,0,899,85.06V636.3a50.83,50.83,0,1,0,101.65,0V85.06A50.84,50.84,0,0,0,949.84,34.21Zm149.83,117.37a50.84,50.84,0,0,0-50.84,50.83V519a50.84,50.84,0,1,0,101.67,0V202.41A50.83,50.83,0,0,0,1099.67,151.58Zm149.84,135.81a50.83,50.83,0,0,0-50.83,50.83v44.92a50.83,50.83,0,1,0,101.66,0V338.22A50.83,50.83,0,0,0,1249.51,287.39Zm149.83-100.23A50.84,50.84,0,0,0,1348.51,238v245.4a50.83,50.83,0,0,0,101.66,0V238A50.82,50.82,0,0,0,1399.34,187.16ZM1549.18,126a50.84,50.84,0,0,0-50.83,50.83V544.52a50.83,50.83,0,1,0,101.65,0V176.84A50.82,50.82,0,0,0,1549.18,126Zm-899-91.8a50.85,50.85,0,0,0-50.83,50.85V636.3a50.83,50.83,0,1,0,101.66,0V85.06A50.84,50.84,0,0,0,650.16,34.21ZM500.33,151.58a50.83,50.83,0,0,0-50.83,50.83V519a50.84,50.84,0,1,0,101.67,0V202.41A50.84,50.84,0,0,0,500.33,151.58ZM350.49,287.39a50.83,50.83,0,0,0-50.83,50.83v44.92a50.83,50.83,0,1,0,101.66,0V338.22A50.83,50.83,0,0,0,350.49,287.39ZM200.66,187.16A50.82,50.82,0,0,0,149.83,238v245.4a50.83,50.83,0,1,0,101.65,0V238A50.83,50.83,0,0,0,200.66,187.16ZM50.82,126A50.82,50.82,0,0,0,0,176.84V544.52a50.83,50.83,0,1,0,101.65,0V176.84A50.84,50.84,0,0,0,50.82,126Z"/></clipPath><linearGradient id="linear-gradient" x1="819.41" y1="830.28" x2="793.57" y2="736.62" gradientUnits="userSpaceOnUse"><stop offset="0" stop-color="#480055"/><stop offset="1" stop-color="#7a2a8f"/></linearGradient><linearGradient id="linear-gradient-2" x1="817.88" y1="727.42" x2="792.04" y2="636.99" gradientUnits="userSpaceOnUse"><stop offset="0" stop-color="#002949"/><stop offset="0.05" stop-color="#003457"/><stop offset="0.16" stop-color="#00466f"/><stop offset="0.29" stop-color="#005482"/><stop offset="0.43" stop-color="#005e8f"/><stop offset="0.62" stop-color="#006497"/><stop offset="1" stop-color="#069"/></linearGradient><linearGradient id="linear-gradient-3" x1="815.45" y1="621.8" x2="792.84" y2="510.37" gradientUnits="userSpaceOnUse"><stop offset="0" stop-color="#2e8bab"/><stop offset="0.03" stop-color="#3091b2"/><stop offset="0.14" stop-color="#37a5ca"/><stop offset="0.27" stop-color="#3db4dd"/><stop offset="0.42" stop-color="#41bfea"/><stop offset="0.61" stop-color="#43c5f2"/><stop offset="1" stop-color="#44c7f4"/></linearGradient><linearGradient id="linear-gradient-4" x1="813.14" y1="501.95" x2="793.76" y2="405.05" gradientUnits="userSpaceOnUse"><stop offset="0" stop-color="#45a843"/><stop offset="0.02" stop-color="#49aa43"/><stop offset="0.13" stop-color="#61b441"/><stop offset="0.26" stop-color="#74bb40"/><stop offset="0.41" stop-color="#81c140"/><stop offset="0.61" stop-color="#89c43f"/><stop offset="1" stop-color="#8bc53f"/></linearGradient><linearGradient id="linear-gradient-5" x1="814.05" y1="400.98" x2="794.67" y2="299.22" gradientUnits="userSpaceOnUse"><stop offset="0" stop-color="#eea836"/><stop offset="0.04" stop-color="#efae36"/><stop offset="0.18" stop-color="#f2c135"/><stop offset="0.35" stop-color="#f4ce34"/><stop offset="0.57" stop-color="#f5d634"/><stop offset="1" stop-color="#f5d834"/></linearGradient><linearGradient id="linear-gradient-6" x1="813.84" y1="297.8" x2="794.45" y2="184.74" gradientUnits="userSpaceOnUse"><stop offset="0" stop-color="#f4821f"/><stop offset="0.11" stop-color="#f68e1d"/><stop offset="0.29" stop-color="#f89b1b"/><stop offset="0.53" stop-color="#f9a31a"/><stop offset="1" stop-color="#f9a51a"/></linearGradient><linearGradient id="linear-gradient-7" x1="808.56" y1="180.76" x2="795.64" y2="9.57" gradientUnits="userSpaceOnUse"><stop offset="0" stop-color="#be1e2d"/><stop offset="0.04" stop-color="#c4222e"/><stop offset="0.18" stop-color="#d73032"/><stop offset="0.35" stop-color="#e43934"/><stop offset="0.57" stop-color="#ec3e36"/><stop offset="1" stop-color="#ee4036"/></linearGradient></defs><title>castweet-logo</title><g class="cls-2"><polygon class="cls-3" points="1671.82 489.06 1671.82 595.36 -59.44 1075.68 -59.44 957.16 1671.82 489.06"/><polygon class="cls-4" points="1671.82 408.11 1671.82 496.39 -59.44 964.88 -59.44 825.81 1671.82 408.11"/><polygon class="cls-5" points="1671.82 322 1671.82 410.28 -59.44 830.35 -59.44 691.29 1671.82 322"/><polygon class="cls-6" points="1671.82 236.34 1671.82 324.62 -59.44 698.04 -59.44 558.97 1671.82 236.34"/><polygon class="cls-7" points="1671.82 153.37 1671.82 241.65 -59.44 566.03 -59.44 426.96 1671.82 153.37"/><polygon class="cls-8" points="1671.82 71.71 1671.82 160 -59.44 434.67 -59.44 295.6 1671.82 71.71"/><polygon class="cls-9" points="-59.44 132.31 -59.44 295.6 1671.82 71.71 1671.82 3.18 -59.44 -12.82 -59.44 132.31"/></g></svg>