<svg xmlns="http://www.w3.org/2000/svg" viewBox="0 0 297.86 42.58"><defs><style>.cls-1{fill:#404041;}</style></defs><title>castweetwithoutlogo</title><g id="Layer_2" data-name="Layer 2"><g id="Layer_1-2" data-name="Layer 1"><path class="cls-1" d="M19.84,4.58q-6.67,0-10.5,4.47T5.51,21.29c0,5.14,1.19,9.22,3.57,12.21S15,38,19.78,38a27.27,27.27,0,0,0,5.11-.47c1.62-.31,3.23-.69,4.81-1.15V40.9a25.15,25.15,0,0,1-4.78,1.28,37.06,37.06,0,0,1-5.89.4A19.78,19.78,0,0,1,8.47,40a16.06,16.06,0,0,1-6.35-7.42A28,28,0,0,1,0,21.23a25.29,25.29,0,0,1,2.29-11A17.25,17.25,0,0,1,9.05,2.7,20.6,20.6,0,0,1,19.9,0,25.2,25.2,0,0,1,31.33,2.44L29.24,6.85A31.4,31.4,0,0,0,25,5.28,18.2,18.2,0,0,0,19.84,4.58Z"/><path class="cls-1" d="M64.74,42l-5-12.82H43.34L38.4,42H33.12L49.31.41H54L70.14,42ZM58.19,24.54,53.55,12c-.12-.31-.31-.87-.59-1.68s-.53-1.66-.78-2.53-.45-1.54-.61-2c-.31,1.2-.62,2.37-1,3.51s-.61,2-.85,2.7l-4.7,12.53Z"/><path class="cls-1" d="M99.32,30.92a10.23,10.23,0,0,1-4,8.59q-4,3.08-10.79,3.07a36.93,36.93,0,0,1-6.44-.52,19.81,19.81,0,0,1-4.94-1.45v-5a30.94,30.94,0,0,0,5.2,1.68,27.17,27.17,0,0,0,6.41.76q4.58,0,7-1.8a5.77,5.77,0,0,0,2.38-4.87A6.35,6.35,0,0,0,93.23,28a7.9,7.9,0,0,0-3-2.55,48.43,48.43,0,0,0-5.86-2.55,20.66,20.66,0,0,1-8-4.7,10.53,10.53,0,0,1-2.66-7.6,9.51,9.51,0,0,1,1.68-5.63A10.69,10.69,0,0,1,80,1.28,17.34,17.34,0,0,1,86.9,0,28.15,28.15,0,0,1,98.33,2.32L96.71,6.79A30.82,30.82,0,0,0,92,5.22a21.71,21.71,0,0,0-5.23-.64c-2.58,0-4.54.55-5.85,1.66a5.42,5.42,0,0,0-2,4.38,6.38,6.38,0,0,0,.88,3.48,7.74,7.74,0,0,0,2.84,2.52A33.71,33.71,0,0,0,88,19a35.46,35.46,0,0,1,6.17,2.87A11.05,11.05,0,0,1,98,25.53,10.11,10.11,0,0,1,99.32,30.92Z"/><path class="cls-1" d="M120.78,42h-5.22V5.16H102.63V.58h31V5.16H120.78Z"/><path class="cls-1" d="M187.58,24.19c-.23,1-.49,2.2-.76,3.45s-.52,2.52-.75,3.78-.41,2.34-.52,3.27c-.12-.93-.29-2-.53-3.25s-.48-2.47-.75-3.71-.54-2.3-.81-3.19l-6.62-24h-7.19l-6.5,23.9a31.58,31.58,0,0,0-.78,3.1c-.25,1.22-.49,2.46-.73,3.72s-.4,2.39-.52,3.39c-.11-.93-.29-2-.52-3.27s-.47-2.53-.73-3.8-.51-2.42-.78-3.43L153.41.58H146L156.65,42h8.24l6.39-23.67c.23-.85.48-1.88.75-3.1s.52-2.4.76-3.54.38-2,.46-2.58a17.76,17.76,0,0,0,.43,2.58c.26,1.14.53,2.32.82,3.54s.53,2.21.72,3L181.78,42H190L200.69.58h-7.43ZM206.37,42h23.56V35.74H213.8V23.55h15.08v-6.2H213.8V6.79h16.13V.58H206.37Zm32.38,0H262.3V35.74H246.17V23.55h15.09v-6.2H246.17V6.79H262.3V.58H238.75ZM266.65.58V6.85h11.89V42H286V6.85h11.89V.58Z"/></g></g></svg>