<svg xmlns="http://www.w3.org/2000/svg" viewBox="0 0 237.52 218.21"><defs><style>.cls-1{fill:#9396a5;}</style></defs><title>kakaotalk</title><g id="Layer_2" data-name="Layer 2"><g id="Layer_1-2" data-name="Layer 1"><polygon class="cls-1" points="88.78 101.41 103.14 101.41 96.25 79.83 88.78 101.41"/><path class="cls-1" d="M118.76,0C53.17,0,0,42,0,93.88c0,33.76,22.53,63.34,56.34,79.89-2.49,9.27-9,33.59-10.3,38.8-1.61,6.45,2.37,6.37,5,4.63,2-1.36,32.54-22.1,45.71-31a150,150,0,0,0,22,1.62c65.59,0,118.76-42,118.76-93.89S184.35,0,118.76,0Zm-58,119.35c0,5.78-12.84,5.48-12.86-.3.07-7.92,0-42.35,0-42.35H35.46c-7.25,0-7.27-12.72,0-12.72H73.09c7.7,0,7.68,13,0,13a63.79,63.79,0,0,0-12.32.9Zm48.86,1.74c-3-7.94-2.23-8.29-2.23-8.29H84.69l-2.46,8.67c-2.64,6.07-14,1.12-11.4-4.95,3.66-8.41,14.66-40.08,17.71-46.79,1.2-2.65,4-3.71,6.94-3.71,3.51,0,7.14,1.55,8.15,3.71,2.19,4.69,14.23,37.74,17.7,46.91C123.76,123.06,112,127.51,109.57,121.09ZM156,123.94c-5.82,0-18.94.06-24.85.06s-4.92-6.9-4.92-6.9,0-34.69,0-45.45c0-3.79,3.34-5.69,6.7-5.69s6.68,1.89,6.69,5.66c0,7.79,0,39.88,0,39.88s10.61.06,16.43.06S161.82,123.94,156,123.94Zm40.49-1-16.32-22.26-3.73,3s0,11,0,16.78c0,5-12.7,5-12.71,0,0-3.17.28-45.85.15-50.57-.07-2.6,3.27-4,6.53-4,3.06,0,6,1.18,6.1,3.6.18,6.41,0,18,0,18s18.42-18.43,21-21,11.08,5.74,8.38,8.43c-4.64,4.6-16.4,17.33-16.4,17.33l17.32,22.81C210.16,119.46,199.78,127.32,196.49,123Z"/></g></g></svg>