<svg xmlns="http://www.w3.org/2000/svg" viewBox="0 0 58.86 16.66"><defs><style>.cls-1{fill:#283988;}</style></defs><title>Krypthon</title><g id="Layer_2" data-name="Layer 2"><g id="Layer_1-2" data-name="Layer 1"><polygon class="cls-1" points="5.24 8.57 2.5 5.42 2.06 5.42 2.06 8.57 0 8.57 0 0.19 2.06 0.19 2.06 3.52 2.36 3.52 5.22 0.19 7.69 0.19 4.13 4.39 7.94 8.57 5.24 8.57"/><path class="cls-1" d="M13.82,8.57,11.29,5.69H10.7V8.57H8.63V.19h4.24A3.09,3.09,0,0,1,15.06,1a2.55,2.55,0,0,1,.83,2,2.63,2.63,0,0,1-.59,1.73,2.75,2.75,0,0,1-1.61.93l2.62,3ZM12.65,4a1.36,1.36,0,0,0,.88-.28A.91.91,0,0,0,13.86,3a.88.88,0,0,0-.33-.72A1.31,1.31,0,0,0,12.65,2h-2V4Z"/><polygon class="cls-1" points="21.36 8.57 19.26 8.57 19.26 5.97 16.02 0.19 18.27 0.19 20.34 3.87 22.38 0.19 24.68 0.19 21.36 5.94 21.36 8.57"/><path class="cls-1" d="M29.62.19A3.14,3.14,0,0,1,31.87,1a2.79,2.79,0,0,1,.83,2.1,2.8,2.8,0,0,1-.86,2.13,3.26,3.26,0,0,1-2.31.8h-2V8.57H25.49V.19Zm-.24,4.09A1.36,1.36,0,0,0,30.33,4a1.11,1.11,0,0,0,.34-.86,1,1,0,0,0-.35-.83A1.34,1.34,0,0,0,29.38,2H27.56V4.28Z"/><polygon class="cls-1" points="38.09 1.99 38.09 8.57 36.04 8.57 36.04 1.99 33.32 1.99 33.32 0.19 40.81 0.19 40.81 1.99 38.09 1.99"/><path class="cls-1" d="M48.79,1.28a4.18,4.18,0,0,1,1.3,3.11,4.16,4.16,0,0,1-1.3,3.1,4.59,4.59,0,0,1-6.34,0,4.2,4.2,0,0,1-1.3-3.1,4.22,4.22,0,0,1,1.3-3.11,4.57,4.57,0,0,1,6.34,0M47.33,6.16A2.43,2.43,0,0,0,48,4.39a2.48,2.48,0,0,0-.69-1.79,2.27,2.27,0,0,0-1.71-.71,2.3,2.3,0,0,0-1.71.71,2.48,2.48,0,0,0-.69,1.79,2.43,2.43,0,0,0,.69,1.77,2.3,2.3,0,0,0,1.71.71,2.27,2.27,0,0,0,1.71-.71"/><polygon class="cls-1" points="58.86 8.57 57.16 8.57 52.92 3.72 52.92 8.57 50.86 8.57 50.86 0.19 52.57 0.19 56.81 5.19 56.81 0.19 58.86 0.19 58.86 8.57"/><path class="cls-1" d="M5.86,16.55,3.22,9.68H4.35l1.26,3.38a25.82,25.82,0,0,1,.86,2.57h0c.23-.8.56-1.66.92-2.56L8.79,9.68H9.9L7,16.55Z"/><path class="cls-1" d="M15,13.33H11.87V15.8h3.51v.75H10.83V9.68H15.2v.74H11.87v2.17H15Z"/><path class="cls-1" d="M16.78,16.55V9.68h1.14l2.59,3.47A18.9,18.9,0,0,1,22,15.38h0a24.86,24.86,0,0,1-.12-2.82V9.68h1v6.87H21.8l-2.57-3.49a22,22,0,0,1-1.51-2.29h0c.06.86.09,1.69.09,2.83v2.94Z"/><path class="cls-1" d="M26.26,10.43H23.8V9.68h6v.75H27.32v6.12H26.26Z"/><path class="cls-1" d="M31.78,9.68v4.06c0,1.54.81,2.2,1.89,2.2s2-.68,2-2.2V9.68h1.06v4a2.74,2.74,0,0,1-3.06,3,2.62,2.62,0,0,1-2.9-2.94v-4Z"/><path class="cls-1" d="M38.55,9.77a13,13,0,0,1,2-.14,3.69,3.69,0,0,1,2.34.56,1.58,1.58,0,0,1,.64,1.3A1.86,1.86,0,0,1,42,13.24v0a1.78,1.78,0,0,1,1.19,1.39,10,10,0,0,0,.63,1.89H42.74a7.23,7.23,0,0,1-.54-1.64,1.49,1.49,0,0,0-1.62-1.34h-1v3h-1Zm1,3.13h1.07c1.12,0,1.83-.52,1.83-1.31s-.76-1.27-1.86-1.28a5.19,5.19,0,0,0-1,.08Z"/><path class="cls-1" d="M49.24,13.33H46.1V15.8h3.5v.75H45.05V9.68h4.37v.74H46.1v2.17h3.14Z"/><path class="cls-1" d="M50.86,15.47a4.26,4.26,0,0,0,1.87.44c1.07,0,1.7-.47,1.7-1.17s-.44-1-1.53-1.36c-1.32-.4-2.13-1-2.13-2s1-1.87,2.61-1.87a4.26,4.26,0,0,1,1.79.34l-.29.72a3.69,3.69,0,0,0-1.53-.32c-1.11,0-1.53.56-1.53,1,0,.64.49,1,1.61,1.32,1.37.45,2.06,1,2.06,2s-.92,2-2.83,2a4.81,4.81,0,0,1-2.06-.44Z"/></g></g></svg>