<svg xmlns="http://www.w3.org/2000/svg" viewBox="0 0 680.25 129.99"><defs><style>.cls-1{fill:#22d1a3;}</style></defs><g id="Layer_2" data-name="Layer 2"><g id="Layer_1-2" data-name="Layer 1"><path class="cls-1" d="M153.51,97.92V32.06a1.87,1.87,0,0,1,2-2.07h30.29a19.69,19.69,0,0,1,8.82,2,22.63,22.63,0,0,1,6.89,5.19A24,24,0,0,1,206,44.47,23.06,23.06,0,0,1,206,61.22a23.54,23.54,0,0,1-4.39,7.26,21.55,21.55,0,0,1-6.8,5.15,19.69,19.69,0,0,1-8.77,1.93H171.62V97.92c0,1.39-.72,2.08-2.17,2.08h-14C154.17,100,153.51,99.31,153.51,97.92Zm28.3-53H171.62V60.65h10.19a6.44,6.44,0,0,0,5.38-2.4,8.57,8.57,0,0,0,1.89-5.43,8.36,8.36,0,0,0-.52-2.83,9.34,9.34,0,0,0-1.42-2.55,7,7,0,0,0-2.26-1.84A6.58,6.58,0,0,0,181.81,44.9Z"/><path class="cls-1" d="M227.1,97.92V32.06a2.35,2.35,0,0,1,.48-1.41,1.71,1.71,0,0,1,1.51-.66h31.32a20.21,20.21,0,0,1,9.11,2,23.33,23.33,0,0,1,7.07,5.33,23.65,23.65,0,0,1,4.58,7.5,24,24,0,0,1,1.6,8.63,20.49,20.49,0,0,1-3.16,10.85,26,26,0,0,1-8.35,8.5l13.5,25.09a1.49,1.49,0,0,1,.18,1.42q-.27.66-1.32.66h-17a2.42,2.42,0,0,1-1.51-.38,4.53,4.53,0,0,1-1-1.6L252.86,76.69h-7.54V100H229.09C227.76,100,227.1,99.31,227.1,97.92Zm28.69-53.4H245.32V61.6h10.47a8,8,0,0,0,3.4-.71A8.86,8.86,0,0,0,261.83,59a8.38,8.38,0,0,0,1.74-2.73,8.56,8.56,0,0,0,.62-3.17,8.32,8.32,0,0,0-.62-3.06,8.82,8.82,0,0,0-1.74-2.78,9.37,9.37,0,0,0-2.64-2A7.55,7.55,0,0,0,255.79,44.52Z"/><path class="cls-1" d="M299.57,65.09A35.18,35.18,0,0,1,302.4,51a36.94,36.94,0,0,1,7.69-11.46,35.89,35.89,0,0,1,11.46-7.74A35.29,35.29,0,0,1,335.61,29a34.91,34.91,0,0,1,14,2.83A36.32,36.32,0,0,1,368.83,51a36.34,36.34,0,0,1,0,28.12,36,36,0,0,1-7.74,11.42,36.87,36.87,0,0,1-11.47,7.69,35.08,35.08,0,0,1-14,2.83,35.46,35.46,0,0,1-14.06-2.83A35.83,35.83,0,0,1,302.4,79.1,34.91,34.91,0,0,1,299.57,65.09Zm18.21-.1a20.1,20.1,0,0,0,1.32,7.36,18,18,0,0,0,3.68,5.9,17.19,17.19,0,0,0,5.66,4,18.22,18.22,0,0,0,14.34,0,17.19,17.19,0,0,0,5.66-4,17.85,17.85,0,0,0,3.68-5.9A20.1,20.1,0,0,0,353.45,65a19.88,19.88,0,0,0-1.33-7.26,18.39,18.39,0,0,0-3.68-5.95,17.17,17.17,0,0,0-5.66-4,18.34,18.34,0,0,0-14.34,0,17.17,17.17,0,0,0-5.66,4,18.56,18.56,0,0,0-3.68,5.95A19.87,19.87,0,0,0,317.78,65Z"/><path class="cls-1" d="M395.93,30h27.74a18.7,18.7,0,0,1,7.21,1.37,18.22,18.22,0,0,1,5.85,3.77,18,18,0,0,1,4,5.66,17.27,17.27,0,0,1,1.46,7.12,16.63,16.63,0,0,1-2.26,8.64A19.44,19.44,0,0,1,434,62.82a17.45,17.45,0,0,1,4.72,2.88,19.74,19.74,0,0,1,7,15,19.64,19.64,0,0,1-5.34,13.4,18.84,18.84,0,0,1-5.89,4.2,18.28,18.28,0,0,1-7.27,1.65H395.83q-1.41,0-1.41-1.32V31.78C394.42,30.59,394.92,30,395.93,30Zm40.76,17.92a12.66,12.66,0,0,0-1-5,11.43,11.43,0,0,0-2.79-4,13.6,13.6,0,0,0-4.15-2.59,13.81,13.81,0,0,0-5.19-.94H399.79V61h23.78a13.33,13.33,0,0,0,5.14-1,12.79,12.79,0,0,0,7-6.94A13.26,13.26,0,0,0,436.69,47.91Zm3.58,32.84a13.76,13.76,0,0,0-1.08-5.33,16.17,16.17,0,0,0-2.88-4.58,14.33,14.33,0,0,0-4.2-3.2A11.13,11.13,0,0,0,427,66.41H399.79V94.62h27.46a11.71,11.71,0,0,0,5.1-1.13,13.51,13.51,0,0,0,4.1-3,14.71,14.71,0,0,0,2.78-4.39A13.58,13.58,0,0,0,440.27,80.75Z"/><path class="cls-1" d="M477.17,98.3V31.69c0-1.14.59-1.7,1.79-1.7h1.88c1.2,0,1.8.56,1.8,1.7V98.3c0,1.13-.6,1.7-1.8,1.7H479C477.76,100,477.17,99.43,477.17,98.3Z"/><path class="cls-1" d="M562.08,30a2.17,2.17,0,0,1,1.33.42,1.52,1.52,0,0,1,.56,1.28v2.07c0,1.13-.63,1.7-1.89,1.7H540.19V100h-5.37V35.46H512.74c-1.14,0-1.7-.63-1.7-1.89V30Z"/><path class="cls-1" d="M111.71,30.13,60.63.76a7.07,7.07,0,0,0-6.37,0L3.19,30.13A7,7,0,0,0,0,35.64V94.35a7,7,0,0,0,3.19,5.51l51.07,29.37a7.07,7.07,0,0,0,6.37,0l51.08-29.37a7,7,0,0,0,3.18-5.51V35.64A7,7,0,0,0,111.71,30.13ZM89,43.75,59.91,60.86a7,7,0,0,1-6.36,0L35.11,50C32.82,48.66,31,49.73,31,52.39V85.12c0,2.61-1.89,3.75-4.2,2.53L23.62,86a6.76,6.76,0,0,1-3.27-5.42V45a7.09,7.09,0,0,1,3.17-5.52L53.55,22a7,7,0,0,1,6.36,0L89,38.91C91.25,40.24,91.25,42.42,89,43.75Z"/><path class="cls-1" d="M70.48,39,59.91,32.81a7.05,7.05,0,0,0-6.36,0L43,39c-2.28,1.33-2.29,3.5,0,4.84L53.55,50a6.93,6.93,0,0,0,6.36,0L70.49,43.8C72.77,42.46,72.76,40.29,70.48,39Z"/><path class="cls-1" d="M634.33,28.87,619.58,44.49l19.08,22.58a.65.65,0,0,1,.14.82.79.79,0,0,1-.69.39h-2.25a1.61,1.61,0,0,1-1.09-.66L617.5,46.74l-9,9.53V67.34c0,.63-.27.94-.82.94h-1.48c-.58,0-.87-.31-.87-.94V28.54q0-.93.87-.93h1.43q.87,0,.87.93V51.61l22-23.4a1.72,1.72,0,0,1,.63-.52,1.59,1.59,0,0,1,.46-.08h2.19a.7.7,0,0,1,.69.44A.69.69,0,0,1,634.33,28.87Z"/><path class="cls-1" d="M667.59,27.61a12.36,12.36,0,0,1,5,1,12.67,12.67,0,0,1,4,2.74,13.13,13.13,0,0,1,2.69,4.06,12.54,12.54,0,0,1,1,5,12.34,12.34,0,0,1-2.08,7A12.52,12.52,0,0,1,672.75,52l6.9,15.23a.73.73,0,0,1,.06.72.67.67,0,0,1-.66.33h-1.92a.81.81,0,0,1-.71-.5l-6.74-15c-.37.07-.73.14-1.1.19a7.93,7.93,0,0,1-1.26.08H654v14.2a.88.88,0,0,1-1,1h-1.15a.88.88,0,0,1-1-1V28.54q0-.93,1-.93ZM666.66,50a11.94,11.94,0,0,0,4-.66A10.4,10.4,0,0,0,674,47.42a8.92,8.92,0,0,0,2.3-3,9.2,9.2,0,0,0,.85-4,9.6,9.6,0,0,0-2.79-6.8,10,10,0,0,0-3.07-2.08,9.36,9.36,0,0,0-3.78-.77H654V50Z"/></g></g></svg>