<svg xmlns="http://www.w3.org/2000/svg" viewBox="0 0 222.86 55.49"><defs><style>.cls-1{fill:#323232;}</style></defs><title>Tconomy</title><g id="Layer_2" data-name="Layer 2"><g id="Layer_1-2" data-name="Layer 1"><path class="cls-1" d="M16.67,7c0-2.58-.06-2.7-1.66-2.7H11.57C5.91,4.31,4.25,5,2,10a1.55,1.55,0,0,1-2-.43C1.05,6.21,2,2.4,2.4.25A.75.75,0,0,1,3.08,0a.69.69,0,0,1,.61.25C4,1.78,4.86,1.85,9.05,1.85h25.1c3,0,3.94-.19,4.67-1.6A1.71,1.71,0,0,1,39.56,0a1,1,0,0,1,.8.31,43.22,43.22,0,0,0-.92,9.78,1.47,1.47,0,0,1-1.91.18c-.8-4.79-2-6-8.55-6H25.47c-1.6,0-1.66.12-1.66,2.7v25.6c0,6.52.55,6.7,3.45,7l2.21.25a1.31,1.31,0,0,1-.12,1.78c-3.57-.12-6.34-.18-9-.18s-5.59.06-9.53.18a1.3,1.3,0,0,1-.12-1.78l2.58-.31c2.89-.37,3.44-.43,3.44-7Z"/><path class="cls-1" d="M53.54,17.22a4,4,0,0,1,1.23,3.14c0,2-1,2.89-1.53,2.89a1.33,1.33,0,0,1-1.17-.67c-1.36-1.79-3.2-3.76-5.6-3.76-3.51,0-7.14,3.45-7.14,9.23,0,5,3.2,9.72,8.8,9.72,4,0,5.41-1.47,6.64-3.26a1.22,1.22,0,0,1,1.3,1.11,11.51,11.51,0,0,1-10.83,6.71A12.54,12.54,0,0,1,36.69,39a12.35,12.35,0,0,1-3.57-8.85c0-7.2,5.23-13.79,15.13-13.79A15.73,15.73,0,0,1,53.54,17.22Z"/><path class="cls-1" d="M84.79,29c0,8.73-6.16,13.29-13.48,13.29-7.07,0-13-4.49-13-12.55,0-8.25,6.28-13.42,13.48-13.42C78.76,16.36,84.79,21,84.79,29ZM72.05,39.87c4.25,0,5.48-5,5.48-9.79,0-5.16-1.79-11.26-6.34-11.26-3.14,0-5.6,3.2-5.6,10C65.59,34.45,67.62,39.87,72.05,39.87Z"/><path class="cls-1" d="M96.77,34.14c0,4.56.24,5.29,2.33,5.6l.92.13a1.3,1.3,0,0,1-.12,1.78c-2.15-.12-4.24-.18-6.52-.18-2,0-4.06.06-6.64.18a1.3,1.3,0,0,1-.13-1.78L88,39.68c2.09-.31,2.33-1,2.33-5.54v-9c0-2.77,0-3.51-1.54-4.43L88,20.24a1.62,1.62,0,0,1,.06-1.42,41.19,41.19,0,0,0,8-3.32.86.86,0,0,1,.8.49c-.12,1.17-.12,2.34-.12,2.83s.18.56.55.62c2.89-1.6,4.61-3.08,8.43-3.08,5,0,7.32,3.45,7.32,8.25v9.53c0,4.56.25,5.29,2.34,5.54l1.41.19a1.31,1.31,0,0,1-.12,1.78c-2.59-.12-4.68-.18-7-.18q-3,0-6.28.18a1.31,1.31,0,0,1-.12-1.78l.92-.13c2.09-.31,2.34-1,2.34-5.6V25.65c0-3.13-1.23-5.6-4.92-5.6A5.06,5.06,0,0,0,97.62,22c-.79,1.11-.85,1.66-.85,3.94Z"/><path class="cls-1" d="M144.83,29c0,8.73-6.15,13.29-13.47,13.29-7.08,0-13-4.49-13-12.55,0-8.25,6.27-13.42,13.47-13.42C138.8,16.36,144.83,21,144.83,29ZM132.1,39.87c4.24,0,5.47-5,5.47-9.79,0-5.16-1.78-11.26-6.33-11.26-3.14,0-5.6,3.2-5.6,10C125.64,34.45,127.67,39.87,132.1,39.87Z"/><path class="cls-1" d="M150.75,25.1c0-2.77,0-3.51-1.54-4.43l-.73-.43a1.62,1.62,0,0,1,.06-1.42,39.34,39.34,0,0,0,8-3.32.89.89,0,0,1,.81.49,26.24,26.24,0,0,0-.13,2.83c0,.44.19.56.56.62,3-1.6,4.61-3.08,8.79-3.08A7.08,7.08,0,0,1,172.1,19c.37.55.74.92,1,.92a3.57,3.57,0,0,0,1.35-.61c2.89-1.79,5-2.9,7.87-2.9,5.17,0,7.51,3.45,7.51,8.25v9.53c0,4.56.25,5.23,2.34,5.54l1.35.19c.55.43.25,1.53,0,1.78-2.64-.12-4.74-.18-7-.18-2,0-4.12.06-6.34.18a1.31,1.31,0,0,1-.12-1.78l1-.19c2.09-.37,2.34-1,2.34-5.54V25.78c0-3.26-1.11-5.73-5-5.73a5.57,5.57,0,0,0-4.13,1.85c-.61.74-.73,1.48-.73,3.2v9c0,4.56.24,5.29,2.33,5.6l.93.13a1.3,1.3,0,0,1-.13,1.78c-2.15-.12-4.18-.18-6.46-.18-2,0-4.12.06-6.15.18a1.31,1.31,0,0,1-.12-1.78l.8-.13c2.09-.31,2.34-1,2.34-5.6V25.78c0-3.26-1.11-5.73-4.68-5.73A5.55,5.55,0,0,0,158,22c-.74,1-.8,1.54-.8,3.94v8.24c0,4.56.25,5.29,2.34,5.6l.92.13a1.31,1.31,0,0,1-.12,1.78c-2.15-.12-4.25-.18-6.52-.18-2,0-4.06.06-6.4.18a1.31,1.31,0,0,1-.12-1.78l1.1-.19c2.09-.37,2.34-1,2.34-5.54Z"/><path class="cls-1" d="M194.6,52.22c0-2,1.41-2.7,3.13-2.76l1.36-.07a3.4,3.4,0,0,0,2.58-1.23A10.8,10.8,0,0,0,204,41.77a11.82,11.82,0,0,0-1-4.55L198,24.3c-1.47-3.82-1.91-4.74-4.24-5.23l-1.23-.25c-.5-.49-.5-1.53.18-1.78,2,.12,4.55.18,6.83.18s4.43-.06,6.52-.18a1.31,1.31,0,0,1,.13,1.78l-1.85.37c-1.41.31-1.48.56-.43,3.26l2.71,7.08c1.16,3.14,1.9,4.61,2.09,4.68a19.2,19.2,0,0,0,2-3.82l1.84-4.12a35.91,35.91,0,0,0,2.22-6c0-.55-.25-.86-1.17-1l-2.09-.44a1.31,1.31,0,0,1,.12-1.78c2.21.12,4.49.18,5.84.18,1.6,0,3.26-.06,4.93-.18.61.18.61,1.35.18,1.78-.74.19-2.64.5-3.51,1.36-.67.68-1.84,2.4-3.75,6.21l-3.14,6.28c-2.09,4.18-6.92,13.83-9.5,19.49-1,2.34-2.65,3.33-4.68,3.33A3.07,3.07,0,0,1,194.6,52.22Z"/></g></g></svg>