<svg xmlns="http://www.w3.org/2000/svg" xmlns:xlink="http://www.w3.org/1999/xlink" viewBox="0 0 242.13 56.76"><defs><style>.cls-1{fill:#221e1f;}.cls-2{fill:url(#linear-gradient);}.cls-3{fill:#212121;}.cls-4{fill:url(#linear-gradient-2);}.cls-5{fill:#fff;}</style><linearGradient id="linear-gradient" x1="177.11" y1="399.87" x2="206" y2="446.75" gradientTransform="translate(183.88 404.31) rotate(180)" gradientUnits="userSpaceOnUse"><stop offset="0" stop-color="#2a9cff"/><stop offset="1" stop-color="#0071e9"/></linearGradient><linearGradient id="linear-gradient-2" x1="40.7" y1="28.28" x2="33.55" y2="48.52" gradientTransform="matrix(1, 0, 0, 1, 0, 0)" xlink:href="#linear-gradient"/></defs><title>venturesquare</title><g id="Layer_2" data-name="Layer 2"><g id="레이어_1" data-name="레이어 1"><path class="cls-1" d="M60.58,43.81a.67.67,0,0,1-.15.25.46.46,0,0,1-.2,0H58.51a.42.42,0,0,1-.18,0,.67.67,0,0,1-.15-.25L53.64,29.92c-.07-.21-.08-.34,0-.39a.71.71,0,0,1,.38-.06h1.66a.39.39,0,0,1,.25.05s.09.11.14.25l3.32,10.87,3.38-10.87c.05-.14.09-.22.15-.25a.44.44,0,0,1,.26-.05h1.68c.19,0,.3,0,.34.07s0,.18,0,.38Z"/><path class="cls-1" d="M70.54,44.11c-.27,0-.44,0-.49-.11a1.16,1.16,0,0,1-.09-.59V30.13a1.21,1.21,0,0,1,.08-.55c0-.07.21-.11.47-.11h6.08c.2,0,.31,0,.33.11a1.46,1.46,0,0,1,0,.34v1.49a.73.73,0,0,1,0,.35s-.14.08-.31.08h-4.3v3.61h4.08c.18,0,.29,0,.32.11a1.08,1.08,0,0,1,0,.35v1.48a.68.68,0,0,1-.06.35q-.06.09-.3.09H72.29v3.91h4.47c.19,0,.29,0,.32.09a.94.94,0,0,1,0,.34v1.49a1,1,0,0,1,0,.35c0,.07-.13.1-.32.1Z"/><path class="cls-1" d="M90.76,44.09a.58.58,0,0,1-.27,0,1,1,0,0,1-.17-.26l-4.94-10v9.86a.92.92,0,0,1,0,.38s-.14.07-.33.07H83.45a.5.5,0,0,1-.33-.07.74.74,0,0,1-.06-.38V29.94a1,1,0,0,1,.06-.42c0-.06.16-.09.36-.09h1.69a.46.46,0,0,1,.28.06,1.09,1.09,0,0,1,.19.3l4.87,9.93V29.89a.72.72,0,0,1,.06-.37c0-.06.14-.09.31-.09h1.54q.31,0,.36.09a.83.83,0,0,1,0,.37V43.56a.84.84,0,0,1-.07.45c0,.05-.17.08-.37.08Z"/><path class="cls-1" d="M103.38,31.86V43.71a.44.44,0,0,1-.08.31.33.33,0,0,1-.24.07h-1.68a.36.36,0,0,1-.25-.07.45.45,0,0,1-.07-.31V31.86H98a.4.4,0,0,1-.27-.07.44.44,0,0,1-.07-.29V29.85c0-.26.11-.38.34-.38h8.41a.36.36,0,0,1,.28.08.56.56,0,0,1,.06.3V31.5a.52.52,0,0,1-.06.29c0,.05-.13.07-.28.07Z"/><path class="cls-1" d="M119.69,43.28a4.33,4.33,0,0,1-1.45.84,5,5,0,0,1-1.7.28,5.08,5.08,0,0,1-1.69-.27,4.17,4.17,0,0,1-1.42-.85,4.57,4.57,0,0,1-1.29-1.91,7.64,7.64,0,0,1-.4-2.58v-8.9a.67.67,0,0,1,.06-.3c0-.08.13-.12.28-.12h1.64c.23,0,.34.12.34.38V39a3.51,3.51,0,0,0,.65,2.22,2.16,2.16,0,0,0,1.83.82,2.23,2.23,0,0,0,1.85-.8A3.57,3.57,0,0,0,119,39V29.85c0-.26.12-.38.34-.38H121c.15,0,.25,0,.29.12a.67.67,0,0,1,.06.3v8.9a7.76,7.76,0,0,1-.41,2.58A4.75,4.75,0,0,1,119.69,43.28Z"/><path class="cls-1" d="M134.39,44.09a.53.53,0,0,1-.27,0,.92.92,0,0,1-.14-.26l-2.43-5.41H130v5.31a.52.52,0,0,1-.07.34.41.41,0,0,1-.26.06H128a.45.45,0,0,1-.26-.06c-.06-.05-.09-.16-.09-.34V29.85a.41.41,0,0,1,.1-.31.35.35,0,0,1,.23-.07h3.43a5.58,5.58,0,0,1,1.74.26,3.32,3.32,0,0,1,1.32.82,3.7,3.7,0,0,1,.85,1.38,5.73,5.73,0,0,1,.3,2,4.78,4.78,0,0,1-.53,2.33,4.08,4.08,0,0,1-1.4,1.51l2.77,5.87a.67.67,0,0,1,.1.39c0,.07-.12.1-.29.1ZM130,31.8v4.26h1.14a2.27,2.27,0,0,0,1.59-.52,2.18,2.18,0,0,0,.57-1.67,2.28,2.28,0,0,0-.45-1.54,1.51,1.51,0,0,0-1.18-.53Z"/><path class="cls-1" d="M142.29,44.11c-.28,0-.44,0-.5-.11a1.2,1.2,0,0,1-.08-.59V30.13a1.26,1.26,0,0,1,.07-.55c.05-.07.21-.11.47-.11h6.09c.19,0,.3,0,.32.11a1,1,0,0,1,0,.34v1.49a.88.88,0,0,1,0,.35s-.14.08-.31.08H144v3.61h4.09c.18,0,.28,0,.31.11a1.08,1.08,0,0,1,0,.35v1.48a.85.85,0,0,1-.05.35.37.37,0,0,1-.3.09H144v3.91h4.48c.18,0,.29,0,.32.09a1.25,1.25,0,0,1,0,.34v1.49a1.33,1.33,0,0,1,0,.35c0,.07-.14.1-.32.1Z"/><path class="cls-1" d="M159.71,43.68c-.19-.07-.26-.18-.23-.35l.07-.87a.35.35,0,0,1,.11-.21c.05,0,.11,0,.18,0a4.71,4.71,0,0,0,1.21.52,5.31,5.31,0,0,0,1.39.16,2.69,2.69,0,0,0,2.84-2.9,1.87,1.87,0,0,0-.39-1.1,4.4,4.4,0,0,0-1.06-1.05c-.4-.28-.85-.57-1.36-.87A14.59,14.59,0,0,1,161,36a5.51,5.51,0,0,1-1.15-1.22,2.73,2.73,0,0,1-.46-1.56,3.74,3.74,0,0,1,.34-1.61,3.51,3.51,0,0,1,.92-1.16,4.25,4.25,0,0,1,1.31-.71,4.81,4.81,0,0,1,1.5-.25,6.91,6.91,0,0,1,1.18.09,8.34,8.34,0,0,1,1.11.29.29.29,0,0,1,.21.35l-.14.74c0,.21-.13.27-.29.17a3.06,3.06,0,0,0-.93-.33,6.13,6.13,0,0,0-1.16-.09,3.67,3.67,0,0,0-1.06.15,2.54,2.54,0,0,0-.88.46,2.25,2.25,0,0,0-.59.76,2.53,2.53,0,0,0-.22,1.08,1.61,1.61,0,0,0,.3.93,4,4,0,0,0,.74.82,7.34,7.34,0,0,0,.94.69l.91.58c.38.24.74.49,1.09.74a4.83,4.83,0,0,1,.94.86,3.94,3.94,0,0,1,.67,1,3.19,3.19,0,0,1,.26,1.31,4,4,0,0,1-.35,1.69,3.83,3.83,0,0,1-2.28,2,4.42,4.42,0,0,1-1.58.28,7.64,7.64,0,0,1-1.34-.11A10.66,10.66,0,0,1,159.71,43.68Z"/><path class="cls-1" d="M182.44,46.22a.17.17,0,0,1,.06.18.12.12,0,0,1-.13.09h-1a.74.74,0,0,1-.58-.27l-2-2.2-.48.06a5,5,0,0,1-.58,0,4.88,4.88,0,0,1-4.19-2,9,9,0,0,1-1.42-5.24,8.87,8.87,0,0,1,1.34-5.07,5.52,5.52,0,0,1,1.85-1.63,5.32,5.32,0,0,1,4.83,0A5.62,5.62,0,0,1,182,31.77a8.87,8.87,0,0,1,1.33,5.07,11.4,11.4,0,0,1-.25,2.33,9,9,0,0,1-.62,1.94,5.9,5.9,0,0,1-1,1.53,4.22,4.22,0,0,1-1.42,1Zm-.36-9.38a7.83,7.83,0,0,0-1-4.16,3.81,3.81,0,0,0-6.62,0,7.83,7.83,0,0,0-1,4.16,7.85,7.85,0,0,0,1,4.16A3.81,3.81,0,0,0,181,41,7.85,7.85,0,0,0,182.08,36.84Z"/><path class="cls-1" d="M215.91,43.6q.09.27-.15.27h-.82a.48.48,0,0,1-.18,0,.45.45,0,0,1-.15-.23l-1.26-3.5h-6.43c-.22.6-.43,1.18-.63,1.75s-.41,1.15-.62,1.75a.45.45,0,0,1-.14.23.58.58,0,0,1-.18,0h-.81q-.24,0-.15-.27l5-13.6a.32.32,0,0,1,.31-.23h1.05a.31.31,0,0,1,.3.23Zm-3-4.71q-.72-2-1.38-3.9c-.44-1.29-.9-2.59-1.38-3.91-.47,1.32-1,2.62-1.41,3.91l-1.41,3.9Z"/><path class="cls-1" d="M191.39,39a4.46,4.46,0,0,0,.83,2.85,3.34,3.34,0,0,0,5.06,0,3.15,3.15,0,0,0,.63-1.22A6.24,6.24,0,0,0,198.1,39V30q0-.27.24-.27h.79q.24,0,.24.27V39a6.84,6.84,0,0,1-.41,2.45,4.23,4.23,0,0,1-1.18,1.71,4.91,4.91,0,0,1-6.07,0A5.08,5.08,0,0,1,190.12,39V30q0-.27.24-.27h.79q.24,0,.24.27Z"/><path class="cls-1" d="M229.59,43.6a.28.28,0,0,1,0,.18.14.14,0,0,1-.14.09h-.89a.39.39,0,0,1-.37-.27c-.52-1.19-.94-2.16-1.29-2.92s-.61-1.35-.8-1.79l-.55-1.2a4.15,4.15,0,0,1-.72.12l-.85,0h-1.44V43.6c0,.18-.08.27-.23.27h-.77q-.24,0-.24-.27V30.38a2.73,2.73,0,0,1,0-.32.25.25,0,0,1,.05-.17.26.26,0,0,1,.16-.07H225a4.47,4.47,0,0,1,1.68.29,3.19,3.19,0,0,1,1.18.83,3.36,3.36,0,0,1,.7,1.29,5.61,5.61,0,0,1,.24,1.69,3.32,3.32,0,0,1-.18,1.09,4,4,0,0,1-.49.94,4.13,4.13,0,0,1-.71.79,4.31,4.31,0,0,1-.83.58Zm-2-9.69a4.93,4.93,0,0,0-.16-1.36,2,2,0,0,0-.55-.91,2.25,2.25,0,0,0-1-.5,6.58,6.58,0,0,0-1.53-.15h-1.77v5.66h1.8a4.37,4.37,0,0,0,1.29-.19,3.13,3.13,0,0,0,1-.55,2.58,2.58,0,0,0,.9-2Z"/><path class="cls-1" d="M235.79,43.88a.8.8,0,0,1-.42-.06,1,1,0,0,1-.06-.47V30.27a.85.85,0,0,1,.06-.43c0-.05.17-.07.39-.07h5.93q.24,0,.24.27v.66q0,.27-.24.27h-5.13v5h4.87q.24,0,.24.27v.68q0,.27-.24.27h-4.87v5.47h5.33c.16,0,.24.09.24.26v.69c0,.18-.08.26-.24.26Z"/><path class="cls-2" d="M9.44,0H0C.8,2.35,2.25,6.62,3,8.76a2,2,0,0,0,1.84,1.3H14.2c0-.11-2-6.05-2.93-8.75A1.94,1.94,0,0,0,9.44,0Z"/><path class="cls-3" d="M4.39,13.46V45.63A11.13,11.13,0,0,0,15.52,56.76h3.94l-15-43.3Z"/><path class="cls-3" d="M47.69,24.59a11.1,11.1,0,0,0-1.47-5.52,11.26,11.26,0,0,0-3.82-3.94,11.1,11.1,0,0,0-5.85-1.67H15.32c1.47,4.34,14.73,43.3,14.73,43.3H47.69ZM34.25,54.17l-2.39-7,7-21.39a1.56,1.56,0,0,1,1.49-1.08h3.9Z"/><path class="cls-3" d="M38.9,25.79l-7,21.39,2.39,7,10-29.46h-3.9A1.56,1.56,0,0,0,38.9,25.79Z"/><path class="cls-4" d="M38.9,25.79l-7,21.39,2.39,7,10-29.46h-3.9A1.56,1.56,0,0,0,38.9,25.79Z"/><path class="cls-5" d="M15.32,13.46H4.5l15,43.3H30.05S16.79,17.8,15.32,13.46Z"/></g></g></svg>